<svg fill="none" height="15" viewBox="0 0 15 15" width="15" xmlns="http://www.w3.org/2000/svg"><path d="m11.5 13.5-.3263.3788c.0949.0818.217.1249.3421.1209zm-1.0665-1.7122c-.1711-.2167-.48556-.2537-.70229-.0826-.21674.1711-.25371.4855-.0826.7023zm.3987-.4094-.174-.4688c-.0066.0025-.0132.0051-.0197.0078zm-1.73802.5155-.08397-.493-.00817.0015zm-3.10445-.012-.09479.4909.00304.0006zm-1.76199-.5154-.18223.4656.00048.0002zm-.87509-.4075-.278.4155c.01097.0074.02223.0143.03374.0207zm-.10783-.06.27757-.4159c-.01732-.0116-.03534-.022-.05396-.0313zm-.04793-.0359.35355-.3536c-.03284-.0328-.0701-.0609-.1107-.0835zm2.15447 1.5203c.17108-.2168.13404-.5312-.08273-.7023-.21677-.171-.53117-.134-.70225.0828zm-1.85136 1.1166-.01583.4997c.1273.0041.25133-.0406.34679-.1249zm-3-2.2534h-.5c0 .0268.00214589.0535.00641701.0799zm1.72601-8.48806-.3-.4c-.07657.05743-.13504.13562-.16848.22529zm3.36812-1.25856.49775-.04741c-.02404-.25245-.23327-.44692-.4868-.45247zm-.37787 1.30605c.02618.27489.27026.47652.54516.45034.27489-.02618.47652-.27026.45034-.54516zm3.52579-.06317c-.03518.27389.15834.52444.43223.55962s.52444-.15834.55962-.43223zm.66373-1.2428-.01097-.49988c-.24729.00543-.45344.19085-.48495.43618zm3.36812 1.25856.4685-.17471c-.0335-.08967-.0919-.16786-.1685-.22528zm1.7261 8.48798.4936.0799c.0043-.0264.0064-.0531.0064-.0799zm-8.01889-2.44523-.5-.00823v.00823zm5.01889 4.69863c.3263-.3788.3263-.3788.3263-.3788 0-.0001 0-.0001-.0001-.0001-.0001-.0001-.0002-.0002-.0005-.0004-.0004-.0004-.0011-.001-.0021-.0019-.0019-.0016-.0049-.0042-.0088-.0076-.0078-.0067-.0194-.0168-.0344-.0299-.0301-.0261-.0736-.0642-.127-.1113-.107-.0944-.253-.2247-.4098-.3687-.3248-.2981-.6592-.6224-.8101-.8135l-.78489.6197c.20872.2643.60379.6413.91859.9304.163.1497.3142.2846.4246.382.0553.0487.1005.0882.132.1156.0157.0138.028.0245.0365.0318.0042.0036.0075.0065.0098.0084.0011.001.002.0017.0026.0023.0003.0002.0005.0004.0007.0006.0001 0 .0001.0001.0002.0002h.0001s0 0 .3263-.3788zm.4356-3.2463c-.4598.3028-.8934.5134-1.2774.6559l.3479.9376c.455-.1689.9564-.4138 1.4795-.7583zm-1.2971.6637c-.5666.2381-1.10519.3945-1.62828.4836l.16791.9858c.60355-.1028 1.21567-.2819 1.84767-.5474zm-1.63646.485c-1.07875.2023-2.07006.1468-2.92056-.012l-.1835.983c.94737.1769 2.06562.2411 3.28833.0119zm-2.91753-.0114c-.6468-.1249-1.20454-.3067-1.67501-.4903l-.36351.9316c.51228.1999 1.1292.4016 1.84895.5405zm-1.67453-.4901c-.26199-.1025-.53936-.225-.81307-.3782l-.48852.8725c.32575.1824.64767.3236.93712.4369zm-.77932-.3575c-.04794-.0321-.09332-.0542-.10818-.0616-.02124-.0106-.01192-.0066-.00009.0013l-.55514.8318c.04781.0319.0931.0539.10781.0612.02109.0106.01164.0065-.00041-.0016zm-.16223-.0916c.01936.0096.03993.0226.05977.0384.01708.0136.02911.0262.02224.0193l-.7071.7071c.02311.0232.08081.0811.17788.1296zm-.02869-.0258c-.09899-.055-.17483-.1011-.22456-.1325-.02485-.0157-.04313-.0277-.05446-.0352-.00567-.0038-.00959-.0065-.01173-.0079-.00107-.0008-.00169-.0012-.00186-.0013-.00009-.0001-.00006-.0001.00009 0 .00007.0001.00017.0002.0003.0003.00006 0 .00013 0 .00021.0001.00004 0 .00008.0001.00012.0001h.00007c.00003.0001.00007.0001-.28665.4097-.28671.4096-.28667.4097-.28664.4097h.00008c.00005.0001.0001.0001.00015.0001.00011.0001.00022.0002.00035.0003.00024.0002.00052.0004.00082.0006.00061.0004.00134.0009.00219.0015.00169.0012.00385.0026.00648.0044.00526.0036.01239.0085.02133.0144.01789.0119.04306.0284.07515.0487.06414.0405.15611.0963.27286.1612zm1.12664 1.3379c-.15262.1934-.48911.5248-.81365.8289-.15704.1472-.30332.2806-.41042.3773-.0535.0483-.09708.0873-.12717.1141-.01504.0135-.0267.0238-.03454.0308-.00392.0034-.00688.0061-.00882.0078-.00098.0009-.0017.0015-.00215.0019-.00023.0002-.0004.0003-.0005.0004-.00005.0001-.00008.0001-.0001.0001 0 0 0 0-.00001 0 .00001 0 .00002 0 .33098.3748s.33098.3748.331.3748c.00001-.0001.00004-.0001.00007-.0001.00005-.0001.00011-.0001.0002-.0002.00017-.0001.0004-.0003.0007-.0006.0006-.0005.00146-.0013.00258-.0023.00224-.002.00549-.0049.00972-.0086.00844-.0075.02075-.0184.03647-.0324.03143-.0281.07654-.0685.13173-.1183.11026-.0996.26129-.2373.42402-.3898.315-.2952.70795-.6769.91487-.9391zm-1.05055 1.2364c-1.16566-.037-1.77806-.5214-2.11069-.9604-.17257-.2278-.27755-.4545-.33891-.6236-.0305-.084-.04964-.1522-.06071-.1968-.005525-.0222-.008998-.0384-.010851-.0476-.000926-.0046-.001443-.0074-.001606-.0083-.000082-.0004-.000075-.0004.000014.0001.000044.0003.000109.0007.000194.0012.000042.0002.00009.0005.000142.0008.000026.0002.000068.0005.000081.0005.000044.0003.000089.0006-.493494.0804-.49358299.0799-.49353534.0802-.49348617.0805.00001827.0001.00006918.0004.00010595.0006.00007367.0005.00015351.001.00023958.0015.00017217.001.00036937.0022.00059265.0035.0004465.0026.0009974.0057.00166062.0094.00132627.0073.00310317.0167.00539507.028.0045815.0227.0112355.0532.0204826.0904.0184656.0744.0474456.1764.0912377.297.087228.2403.235555.5612.481851.8863.505111.6667 1.392721 1.309 2.876091 1.3559zm-2.51583-1.7537c0-1.86621.41906-3.93981.84654-5.5641.21276-.80843.42556-1.498.58496-1.98487.07967-.24333.1459-.43572.19199-.56668.02304-.06547.04104-.11556.05316-.14896.00606-.01669.01064-.02921.01365-.0374.00151-.00409.00262-.00709.00332-.00899.00035-.00095.00061-.00162.00075-.00202.00007-.00019.00012-.00032.00014-.00038.00001-.00003.00001-.00002.00002-.00003-.00001.00002-.00003.00007-.46852-.17463-.46848-.17471-.46851-.17462-.46855-.17453-.00002.00006-.00006.00017-.00011.00029-.00008.00022-.00019.00052-.00032.00088-.00028.00073-.00065.00174-.00113.00303-.00095.00258-.00232.00628-.00408.01106-.00352.00957-.00863.02351-.01521.04166-.01317.03629-.03225.08941-.0564.15803-.04831.13725-.11692.33661-.19907.58751-.16422.50158-.38293 1.21037-.601668 2.04152-.435526 1.65486-.879472 3.82531-.879472 5.81861zm1.52602-8.08806c.79946-.59961 1.57665-.88912 2.14984-1.02898.28665-.06995.52149-.10226.68111-.11713.07974-.00743.14047-.01049.17923-.01173.01937-.00062.03322-.00078.04118-.00081.00398-.00002.00649-.00001.00747 0 .00049.00001.0006.00001.00033.00001-.00014-.00001-.00037-.00001-.00071-.00002-.00016 0-.00035 0-.00057-.00001-.00011 0-.00029 0-.00034 0-.00018-.00001-.00038-.00001.01057-.49989s.01075-.49989.01054-.49989c-.00008 0-.0003-.00001-.00045-.00001-.00032-.00001-.00066-.00001-.00103-.00002-.00073-.00001-.00156-.00003-.00249-.00004-.00187-.000032-.00414-.000062-.00681-.000086-.00534-.000048-.01226-.000076-.02073-.00004-.01694.000072-.04005.000396-.06895.001326-.05779.00185-.13883.00609-.24001.01552-.20221.01884-.48577.05845-.8254.14132-.67937.16578-1.58624.50555-2.51279 1.20048zm2.57037-1.61116.11987 1.25865.9955-.09482-.11988-1.25864zm4.63751 1.32287.16781-1.30649-.99185-.1274-.16781 1.3065zm-.32812-1.37019c.01098.49988.01078.49988.0106.49989-.00005 0-.00023 0-.00034 0-.00022.00001-.00041.00001-.00057.00002-.00034 0-.00057.00001-.00071.00001h.00033c.00098-.00001.00349-.00003.00747-.00001.00796.00003.02181.00019.04118.00081.03876.00124.09949.00429.17923.01172.15961.01487.39443.04717.68113.11711.5731.13986 1.3503.42936 2.1498 1.029l.6-.79998c-.9265-.69497-1.8334-1.03475-2.5128-1.20052-.3396-.08287-.62319-.12247-.82541-.1413-.10117-.00942-.18222-.01367-.24001-.01552-.0289-.00092-.05201-.00124-.06895-.001315-.00846-.000035-.01539-.000007-.02073.000045-.00267.00002-.00494.00005-.0068.00008-.00094.00001-.00177.00003-.0025.00004-.00037.00001-.00071.00002-.00102.00002-.00016 0-.00038.00001-.00046.00001-.00021.00001-.00041.00001.01056.49989zm3.36812 1.25856c-.4685.17471-.4685.17467-.4685.17464v.00003c0 .00006.0001.00019.0001.00038.0002.0004.0004.00107.0008.00202.0007.0019.0018.00491.0033.009.003.00818.0076.0207.0137.0374.0121.03339.0301.08348.0531.14895.0461.13095.1124.32334.192.56666.1594.48688.3722 1.17643.585 1.98485.4275 1.62427.8466 3.69784.8466 5.56405h1c0-1.9933-.444-4.16374-.8795-5.81858-.2188-.83114-.4375-1.53991-.6017-2.04149-.0822-.2509-.1508-.45026-.1991-.5875-.0241-.06862-.0432-.12174-.0564-.15803-.0066-.01815-.0117-.03209-.0152-.04166-.0018-.00478-.0031-.00847-.0041-.01105-.0005-.00129-.0008-.00231-.0011-.00304-.0001-.00036-.0003-.00066-.0003-.00088-.0001-.00011-.0001-.00023-.0001-.00028-.0001-.0001-.0001-.00018-.4686.17453zm1.7261 8.48798c-.4936-.0798-.4935-.0801-.4935-.0804 0-.0001.0001-.0003.0001-.0005 0-.0003.0001-.0006.0001-.0008.0001-.0005.0002-.0009.0002-.0012.0001-.0005.0001-.0005 0-.0001-.0001.0009-.0006.0037-.0016.0083-.0018.0092-.0053.0254-.0108.0476-.0111.0446-.0302.1128-.0607.1968-.0614.1691-.1664.3958-.339.6236-.3326.439-.945.9234-2.1106.9604l.0316.9994c1.4834-.0469 2.371-.6892 2.8761-1.3559.2463-.3251.3946-.6459.4819-.8863.0438-.1206.0727-.2226.0912-.297.0093-.0372.0159-.0677.0205-.0904.0023-.0113.0041-.0207.0054-.028.0006-.0037.0012-.0068.0016-.0094.0003-.0013.0005-.0025.0006-.0035.0001-.0005.0002-.001.0003-.0015 0-.0002.0001-.0005.0001-.0006 0-.0003.0001-.0006-.4935-.0805zm-9.24148-4.27565c-1.0012 0-1.72251.86696-1.72251 1.83042h1c0-.49879.35732-.83042.72251-.83042zm-1.72251 1.83042c0 .96684.73629 1.83053 1.72251 1.83053v-1.00002c-.35625 0-.72251-.33492-.72251-.83051zm1.72251 1.83053c1.00128 0 1.72259-.86698 1.72259-1.83053h-1c0 .49888-.35732.83051-.72259.83051zm1.72252-1.82229c.01611-.97783-.7284-1.83866-1.72252-1.83866v1c.37226 0 .73064.33776.72265.82219zm2.65253-1.83866c-1.00122 0-1.72267.86689-1.72267 1.83042h1c0-.49872.35733-.83042.72267-.83042zm-1.72267 1.83042c0 .96693.73653 1.83053 1.72267 1.83053v-1.00002c-.35633 0-.72267-.33501-.72267-.83051zm1.72267 1.83053c1.00123 0 1.72253-.867 1.72253-1.83053h-1c0 .4989-.35736.83051-.72253.83051zm1.72253-1.83053c0-.96346-.7213-1.83042-1.72253-1.83042v1c.36519 0 .72253.33163.72253.83042zm-7.6167-4.36243c1.44307-.78701 2.61829-1.15421 3.76295-1.15478 1.14436-.00057 2.31781.3653 3.75735 1.15428l.4806-.87692c-1.5227-.83461-2.86535-1.27804-4.23845-1.27736-1.3728.00068-2.71644.44527-4.24125 1.27685z" fill="#000"/></svg>